<svg width="26" height="27" viewBox="0 0 26 27" fill="none" xmlns="http://www.w3.org/2000/svg">
<circle cx="13" cy="13.95" r="13" fill="#FFF6F0"/>
<mask id="mask0_89_2547" style="mask-type:alpha" maskUnits="userSpaceOnUse" x="4" y="7" width="17" height="16">
<rect x="4.96191" y="7.08923" width="16.0381" height="15.8976" fill="#D9D9D9"/>
</mask>
<g mask="url(#mask0_89_2547)">
<path d="M9.13876 16.2799H14.1507V15.2863H9.13876V16.2799ZM9.13876 14.2927H16.8237V13.2991H9.13876V14.2927ZM9.13876 12.3055H16.8237V11.3119H9.13876V12.3055ZM7.84085 18.8467C7.50861 18.8467 7.22422 18.7295 6.98766 18.495C6.75109 18.2605 6.63281 17.9786 6.63281 17.6493V9.94257C6.63281 9.61325 6.75109 9.33134 6.98766 9.09685C7.22422 8.86236 7.50861 8.74512 7.84085 8.74512H18.1216C18.4538 8.74512 18.7382 8.86236 18.9748 9.09685C19.2113 9.33134 19.3296 9.61325 19.3296 9.94257V17.6493C19.3296 17.9786 19.2113 18.2605 18.9748 18.495C18.7382 18.7295 18.4538 18.8467 18.1216 18.8467H14.6403L13.4811 20.5728C13.4205 20.6636 13.3473 20.7318 13.2614 20.7773C13.1756 20.8227 13.0822 20.8454 12.9812 20.8454C12.8802 20.8454 12.7868 20.8227 12.7011 20.7773C12.6152 20.7318 12.542 20.6636 12.4814 20.5728L11.3221 18.8467H7.84085ZM12.9812 19.5384L14.1019 17.8531H18.1216C18.1816 17.8531 18.2309 17.834 18.2694 17.7958C18.308 17.7576 18.3272 17.7088 18.3272 17.6493V9.94257C18.3272 9.88307 18.308 9.83422 18.2694 9.79602C18.2309 9.75782 18.1816 9.73872 18.1216 9.73872H7.84085C7.78082 9.73872 7.73153 9.75782 7.693 9.79602C7.65446 9.83422 7.63519 9.88307 7.63519 9.94257V17.6493C7.63519 17.7088 7.65446 17.7576 7.693 17.7958C7.73153 17.834 7.78082 17.8531 7.84085 17.8531H11.8606L12.9812 19.5384Z" fill="#FF5E00"/>
</g>
</svg>
