<svg width="26" height="27" viewBox="0 0 26 27" fill="none" xmlns="http://www.w3.org/2000/svg">
<circle cx="13" cy="13.95" r="13" fill="#FFF5F0"/>
<path d="M17.6606 19.0688L16.3594 20.3184C16.2466 20.4277 16.107 20.4857 15.9404 20.4923C15.7739 20.4988 15.6275 20.4409 15.5013 20.3184C15.3833 20.204 15.3242 20.0653 15.3242 19.9023C15.3242 19.7394 15.3833 19.6008 15.5013 19.4865L16.7901 18.2247L15.5013 16.9631C15.3885 16.8538 15.3288 16.7184 15.322 16.5569C15.3152 16.3955 15.375 16.2536 15.5013 16.1312C15.6193 16.0167 15.7622 15.9595 15.9303 15.9595C16.0984 15.9595 16.2415 16.0167 16.3594 16.1312L17.6606 17.3807L18.9621 16.1312C19.0747 16.0219 19.2143 15.9639 19.3808 15.9573C19.5473 15.9507 19.6938 16.0087 19.8201 16.1312C19.9381 16.2455 19.997 16.3842 19.997 16.5471C19.997 16.7101 19.9381 16.8488 19.8201 16.9631L18.5313 18.2247L19.8201 19.4865C19.9329 19.5957 19.9927 19.731 19.9995 19.8925C20.0063 20.0539 19.9465 20.1959 19.8201 20.3184C19.7022 20.4327 19.5592 20.4899 19.391 20.4899C19.223 20.4899 19.08 20.4327 18.9621 20.3184L17.6606 19.0688ZM7.03573 20.95C6.46681 20.95 5.98529 20.7589 5.59118 20.3768C5.19706 19.9947 5 19.5278 5 18.9763V18.126C5 17.7323 5.14379 17.3961 5.43137 17.1173C5.71909 16.8384 6.06598 16.699 6.47204 16.699H7.44288V7.37712C7.44288 6.98344 7.58667 6.64712 7.87425 6.36817C8.16197 6.08936 8.50886 5.94995 8.91492 5.94995H17.3709C17.777 5.94995 18.1239 6.08936 18.4116 6.36817C18.6992 6.64712 18.843 6.98344 18.843 7.37712V13.6929C18.843 13.8609 18.7845 14.0016 18.6675 14.1149C18.5507 14.2283 18.4056 14.285 18.2323 14.285C18.059 14.285 17.9139 14.2283 17.797 14.1149C17.68 14.0016 17.6215 13.8609 17.6215 13.6929V7.37712C17.6215 7.3062 17.5981 7.24798 17.5511 7.20245C17.5041 7.15693 17.4441 7.13416 17.3709 7.13416H8.91492C8.84177 7.13416 8.78171 7.15693 8.73475 7.20245C8.6878 7.24798 8.66432 7.3062 8.66432 7.37712V16.699H13.1195C13.2928 16.699 13.4379 16.7557 13.5548 16.869C13.6717 16.9824 13.7302 17.123 13.7302 17.2909C13.7302 17.459 13.6717 17.5997 13.5548 17.7131C13.4379 17.8264 13.2928 17.883 13.1195 17.883H6.47204C6.39889 17.883 6.33883 17.9059 6.29188 17.9515C6.24492 17.9971 6.22144 18.0552 6.22144 18.126V18.9763C6.22144 19.2 6.29948 19.3875 6.45555 19.5388C6.61162 19.6901 6.80502 19.7657 7.03573 19.7657H13.1195C13.2928 19.7657 13.4379 19.8225 13.5548 19.9359C13.6717 20.0492 13.7302 20.1898 13.7302 20.3578C13.7302 20.5259 13.6717 20.6665 13.5548 20.7798C13.4379 20.8932 13.2928 20.95 13.1195 20.95H7.03573ZM13.6753 19.7657H6.22144H13.4373H13.4202H13.6753ZM10.2459 10.8386C10.0726 10.8386 9.92749 10.7819 9.81064 10.6686C9.69365 10.5552 9.63516 10.4145 9.63516 10.2465C9.63516 10.0784 9.69365 9.93778 9.81064 9.82449C9.92749 9.71107 10.0726 9.65436 10.2459 9.65436H16.04C16.2133 9.65436 16.3584 9.71107 16.4752 9.82449C16.5922 9.93778 16.6507 10.0784 16.6507 10.2465C16.6507 10.4145 16.5922 10.5552 16.4752 10.6686C16.3584 10.7819 16.2133 10.8386 16.04 10.8386H10.2459ZM10.2459 13.116C10.0726 13.116 9.92749 13.0593 9.81064 12.9459C9.69365 12.8326 9.63516 12.6919 9.63516 12.5239C9.63516 12.3559 9.69365 12.2151 9.81064 12.1017C9.92749 11.9884 10.0726 11.9318 10.2459 11.9318H16.04C16.2133 11.9318 16.3584 11.9884 16.4752 12.1017C16.5922 12.2151 16.6507 12.3559 16.6507 12.5239C16.6507 12.6919 16.5922 12.8326 16.4752 12.9459C16.3584 13.0593 16.2133 13.116 16.04 13.116H10.2459Z" fill="#FF5E00"/>
</svg>
