<svg width="26" height="26" viewBox="0 0 26 26" fill="none" xmlns="http://www.w3.org/2000/svg">
<rect width="26" height="26" fill="#E2E4EC"/>
<rect width="1440" height="1038" transform="translate(-579 -875)" fill="white"/>
<rect x="-23.5" y="-799.5" width="329" height="886" rx="15.5" fill="white" stroke="#EFE5DE"/>
<circle cx="13" cy="13" r="13" fill="#FFF5F0"/>
<mask id="mask0_364_254" style="mask-type:alpha" maskUnits="userSpaceOnUse" x="4" y="3" width="18" height="18">
<rect x="4.79688" y="3.54761" width="17.2031" height="17.2031" fill="#D9D9D9"/>
</mask>
<g mask="url(#mask0_364_254)">
<path d="M9.09766 17.7043V18.3797C9.09766 18.4349 9.12065 18.4855 9.16665 18.5314C9.21252 18.5773 9.26306 18.6003 9.31825 18.6003H16.045C16.1002 18.6003 16.1508 18.5773 16.1966 18.5314C16.2426 18.4855 16.2656 18.4349 16.2656 18.3797V17.7043H9.09766ZM9.09766 6.59399H16.2656V5.91859C16.2656 5.8634 16.2426 5.81286 16.1966 5.76699C16.1508 5.72099 16.1002 5.698 16.045 5.698H9.31825C9.26306 5.698 9.21252 5.72099 9.16665 5.76699C9.12065 5.81286 9.09766 5.8634 9.09766 5.91859V6.59399ZM9.31825 19.6755C8.96081 19.6755 8.65545 19.549 8.40218 19.2958C8.14904 19.0425 8.02246 18.7372 8.02246 18.3797V5.91859C8.02246 5.56115 8.14904 5.25579 8.40218 5.00253C8.65545 4.74938 8.96081 4.6228 9.31825 4.6228H16.045C16.4025 4.6228 16.7078 4.74938 16.9611 5.00253C17.2142 5.25579 17.3408 5.56115 17.3408 5.91859V7.99999C17.3408 8.15255 17.2893 8.28032 17.1864 8.3833C17.0835 8.48616 16.9558 8.53759 16.8032 8.53759C16.6507 8.53759 16.523 8.48616 16.4201 8.3833C16.3171 8.28032 16.2656 8.15255 16.2656 7.99999V7.66919H9.09766V16.6292H16.2656V16.2983C16.2656 16.1458 16.3171 16.018 16.4201 15.915C16.523 15.8122 16.6507 15.7608 16.8032 15.7608C16.9558 15.7608 17.0835 15.8122 17.1864 15.915C17.2893 16.018 17.3408 16.1458 17.3408 16.2983V18.3797C17.3408 18.7372 17.2142 19.0425 16.9611 19.2958C16.7078 19.549 16.4025 19.6755 16.045 19.6755H9.31825Z" fill="#FF5E00"/>
<path d="M17.2512 14.1943L17.2511 12.6855L18.76 12.6856C18.8654 12.6856 18.9556 12.648 19.0308 12.5728C19.1059 12.4978 19.1435 12.4075 19.1435 12.302C19.1435 12.1965 19.1047 12.1062 19.0273 12.0312C18.9498 11.9561 18.8607 11.9185 18.76 11.9184L17.2511 11.9185L17.2512 10.4097C17.2511 10.3042 17.2135 10.2139 17.1385 10.1388C17.0634 10.0637 16.9731 10.0262 16.8676 10.0261C16.7621 10.0262 16.6719 10.0649 16.5968 10.1423C16.5217 10.2198 16.4841 10.3089 16.4841 10.4097L16.4841 11.9185L14.9753 11.9184C14.8698 11.9185 14.7795 11.9561 14.7044 12.0312C14.6293 12.1063 14.5917 12.1966 14.5917 12.302C14.5918 12.4075 14.6305 12.4978 14.7079 12.5728C14.7854 12.6479 14.8745 12.6855 14.9753 12.6856L16.4841 12.6855L16.4841 14.1943C16.4841 14.2998 16.5217 14.3901 16.5968 14.4652C16.6719 14.5403 16.7621 14.5778 16.8676 14.5779C16.973 14.5779 17.0633 14.5392 17.1385 14.4617C17.2135 14.3842 17.2511 14.2951 17.2512 14.1943Z" fill="#FF5E00"/>
</g>
</svg>
