<svg width="26" height="27" viewBox="0 0 26 27" fill="none" xmlns="http://www.w3.org/2000/svg">
<circle cx="13" cy="13.95" r="13" fill="#FFF6F0"/>
<path d="M7.94568 19.3481C7.81516 19.4791 7.66028 19.5419 7.48105 19.5366C7.30182 19.5311 7.15123 19.4585 7.02926 19.3187C6.39768 18.5992 5.90154 17.7881 5.54084 16.8856C5.18028 15.9829 5 15.0142 5 13.9794C5 12.8698 5.21025 11.8266 5.63074 10.8498C6.05123 9.87289 6.62154 9.02303 7.34168 8.30025C8.06182 7.57746 8.90856 7.00505 9.8819 6.58301C10.8551 6.16097 11.8945 5.94995 13 5.94995C14.1055 5.94995 15.1449 6.16097 16.1181 6.58301C17.0914 7.00505 17.9382 7.57746 18.6583 8.30025C19.3785 9.02303 19.9488 9.87289 20.3693 10.8498C20.7898 11.8266 21 12.8698 21 13.9794C21 15.0088 20.8197 15.9762 20.4592 16.8816C20.0985 17.7868 19.6023 18.5992 18.9707 19.3187C18.8488 19.4585 18.7004 19.5333 18.5255 19.5431C18.3506 19.5528 18.1978 19.4921 18.0672 19.361C17.9452 19.2386 17.8883 19.0861 17.8964 18.9035C17.9044 18.721 17.9695 18.5597 18.0916 18.4198C18.6065 17.8229 19.0095 17.1473 19.3004 16.3931C19.5914 15.6389 19.7368 14.8343 19.7368 13.9794C19.7368 12.0918 19.0842 10.4929 17.7789 9.18285C16.4737 7.87279 14.8807 7.21775 13 7.21775C11.1193 7.21775 9.52632 7.87279 8.22105 9.18285C6.91579 10.4929 6.26316 12.0918 6.26316 13.9794C6.26316 14.8343 6.4073 15.6367 6.69558 16.3865C6.98386 17.1363 7.39249 17.8098 7.92147 18.407C8.04344 18.5467 8.11067 18.7057 8.12316 18.8841C8.13551 19.0623 8.07635 19.2169 7.94568 19.3481ZM10.3246 16.9604C10.1941 17.0914 10.0406 17.1578 9.864 17.1594C9.68744 17.161 9.54253 17.0876 9.42926 16.9393C9.10098 16.5296 8.84211 16.0764 8.65263 15.5795C8.46316 15.0827 8.36842 14.5493 8.36842 13.9794C8.36842 12.6899 8.81916 11.5927 9.72063 10.6879C10.6221 9.78315 11.7152 9.33076 13 9.33076C14.2848 9.33076 15.3779 9.78315 16.2794 10.6879C17.1808 11.5927 17.6316 12.6899 17.6316 13.9794C17.6316 14.544 17.5368 15.0782 17.3474 15.5821C17.1579 16.0858 16.899 16.5382 16.5707 16.9393C16.4575 17.079 16.3126 17.1524 16.136 17.1594C15.9594 17.1665 15.8059 17.1044 15.6754 16.9733C15.5533 16.8509 15.4914 16.7025 15.4899 16.5281C15.4882 16.3535 15.5414 16.192 15.6495 16.0436C15.8697 15.751 16.0446 15.4314 16.1741 15.0847C16.3036 14.7379 16.3684 14.3694 16.3684 13.9794C16.3684 13.0496 16.0386 12.2537 15.3789 11.5917C14.7193 10.9296 13.9263 10.5986 13 10.5986C12.0737 10.5986 11.2807 10.9296 10.6211 11.5917C9.9614 12.2537 9.63158 13.0496 9.63158 13.9794C9.63158 14.3782 9.69635 14.7488 9.8259 15.0912C9.95544 15.4335 10.1303 15.751 10.3505 16.0436C10.4586 16.192 10.5118 16.3514 10.5101 16.5215C10.5086 16.6916 10.4467 16.8378 10.3246 16.9604ZM13 15.2472C12.6556 15.2472 12.3589 15.1223 12.1101 14.8725C11.8613 14.6228 11.7368 14.3251 11.7368 13.9794C11.7368 13.6337 11.8613 13.336 12.1101 13.0862C12.3589 12.8364 12.6556 12.7116 13 12.7116C13.3444 12.7116 13.6411 12.8364 13.8899 13.0862C14.1387 13.336 14.2632 13.6337 14.2632 13.9794C14.2632 14.3251 14.1387 14.6228 13.8899 14.8725C13.6411 15.1223 13.3444 15.2472 13 15.2472Z" fill="#FF5E00"/>
</svg>
