<svg width="26" height="26" viewBox="0 0 26 26" fill="none" xmlns="http://www.w3.org/2000/svg">
<circle cx="13" cy="13" r="13" fill="#FFF5F0"/>
<mask id="mask0_89_2133" style="mask-type:alpha" maskUnits="userSpaceOnUse" x="2" y="3" width="23" height="20">
<rect x="2" y="3" width="22.5" height="20" fill="#D9D9D9"/>
</mask>
<g mask="url(#mask0_89_2133)">
<path d="M10.125 18.25C10.3464 18.25 10.5319 18.1781 10.6816 18.0344C10.8314 17.8906 10.9062 17.7125 10.9062 17.5C10.9062 17.2875 10.8314 17.1094 10.6816 16.9656C10.5319 16.8219 10.3464 16.75 10.125 16.75C9.90365 16.75 9.7181 16.8219 9.56836 16.9656C9.41862 17.1094 9.34375 17.2875 9.34375 17.5C9.34375 17.7125 9.41862 17.8906 9.56836 18.0344C9.7181 18.1781 9.90365 18.25 10.125 18.25ZM10.125 15.25C10.3464 15.25 10.5319 15.1781 10.6816 15.0344C10.8314 14.8906 10.9062 14.7125 10.9062 14.5V13C10.9062 12.7875 10.8314 12.6094 10.6816 12.4656C10.5319 12.3219 10.3464 12.25 10.125 12.25C9.90365 12.25 9.7181 12.3219 9.56836 12.4656C9.41862 12.6094 9.34375 12.7875 9.34375 13V14.5C9.34375 14.7125 9.41862 14.8906 9.56836 15.0344C9.7181 15.1781 9.90365 15.25 10.125 15.25ZM13.25 18.25C13.4714 18.25 13.6569 18.1781 13.8066 18.0344C13.9564 17.8906 14.0312 17.7125 14.0312 17.5V16C14.0312 15.7875 13.9564 15.6094 13.8066 15.4656C13.6569 15.3219 13.4714 15.25 13.25 15.25C13.0286 15.25 12.8431 15.3219 12.6934 15.4656C12.5436 15.6094 12.4688 15.7875 12.4688 16V17.5C12.4688 17.7125 12.5436 17.8906 12.6934 18.0344C12.8431 18.1781 13.0286 18.25 13.25 18.25ZM13.25 13.75C13.4714 13.75 13.6569 13.6781 13.8066 13.5344C13.9564 13.3906 14.0312 13.2125 14.0312 13C14.0312 12.7875 13.9564 12.6094 13.8066 12.4656C13.6569 12.3219 13.4714 12.25 13.25 12.25C13.0286 12.25 12.8431 12.3219 12.6934 12.4656C12.5436 12.6094 12.4688 12.7875 12.4688 13C12.4688 13.2125 12.5436 13.3906 12.6934 13.5344C12.8431 13.6781 13.0286 13.75 13.25 13.75ZM16.375 18.25C16.5964 18.25 16.7819 18.1781 16.9316 18.0344C17.0814 17.8906 17.1562 17.7125 17.1562 17.5C17.1562 17.2875 17.0814 17.1094 16.9316 16.9656C16.7819 16.8219 16.5964 16.75 16.375 16.75C16.1536 16.75 15.9681 16.8219 15.8184 16.9656C15.6686 17.1094 15.5938 17.2875 15.5938 17.5C15.5938 17.7125 15.6686 17.8906 15.8184 18.0344C15.9681 18.1781 16.1536 18.25 16.375 18.25ZM16.375 15.25C16.5964 15.25 16.7819 15.1781 16.9316 15.0344C17.0814 14.8906 17.1562 14.7125 17.1562 14.5V13C17.1562 12.7875 17.0814 12.6094 16.9316 12.4656C16.7819 12.3219 16.5964 12.25 16.375 12.25C16.1536 12.25 15.9681 12.3219 15.8184 12.4656C15.6686 12.6094 15.5938 12.7875 15.5938 13V14.5C15.5938 14.7125 15.6686 14.8906 15.8184 15.0344C15.9681 15.1781 16.1536 15.25 16.375 15.25ZM8.5625 20.5C8.13281 20.5 7.76497 20.3531 7.45898 20.0594C7.15299 19.7656 7 19.4125 7 19V10.6188C7 10.4188 7.03906 10.2281 7.11719 10.0469C7.19531 9.86562 7.30599 9.70625 7.44922 9.56875L11.2383 5.93125C11.3815 5.79375 11.5475 5.6875 11.7363 5.6125C11.9251 5.5375 12.1237 5.5 12.332 5.5H17.9375C18.3672 5.5 18.735 5.64688 19.041 5.94063C19.347 6.23438 19.5 6.5875 19.5 7V19C19.5 19.4125 19.347 19.7656 19.041 20.0594C18.735 20.3531 18.3672 20.5 17.9375 20.5H8.5625ZM8.5625 19H17.9375V7H12.3516L8.5625 10.6375V19Z" fill="#FF5E00"/>
</g>
</svg>
