<svg width="26" height="26" viewBox="0 0 26 26" fill="none" xmlns="http://www.w3.org/2000/svg">
<circle cx="13" cy="13" r="13" fill="#FFF5F0"/>
<mask id="mask0_89_2570" style="mask-type:alpha" maskUnits="userSpaceOnUse" x="4" y="3" width="18" height="18">
<rect x="4.79688" y="3.54761" width="17.2031" height="17.2031" fill="#D9D9D9"/>
</mask>
<g mask="url(#mask0_89_2570)">
<path d="M7.4165 13.4036C7.26395 13.4036 7.13618 13.3521 7.0332 13.2491C6.93034 13.1462 6.87891 13.0185 6.87891 12.866V9.28198C6.87891 9.12942 6.93034 9.00171 7.0332 8.89885C7.13618 8.79587 7.26395 8.74438 7.4165 8.74438C7.56894 8.74438 7.69665 8.79587 7.79963 8.89885C7.90261 9.00171 7.9541 9.12942 7.9541 9.28198V12.866C7.9541 13.0185 7.90261 13.1462 7.79963 13.2491C7.69665 13.3521 7.56894 13.4036 7.4165 13.4036ZM19.3813 15.554C19.2288 15.554 19.1011 15.5025 18.9981 15.3995C18.8952 15.2966 18.8437 15.1689 18.8437 15.0164V11.4324C18.8437 11.2798 18.8952 11.1521 18.9981 11.0492C19.1011 10.9463 19.2288 10.8948 19.3813 10.8948C19.5338 10.8948 19.6616 10.9463 19.7646 11.0492C19.8674 11.1521 19.9189 11.2798 19.9189 11.4324V15.0164C19.9189 15.1689 19.8674 15.2966 19.7646 15.3995C19.6616 15.5025 19.5338 15.554 19.3813 15.554ZM10.6833 18.9587C10.3212 18.9587 10.0147 18.8333 9.76383 18.5824C9.51307 18.3315 9.3877 18.0251 9.3877 17.663V6.63539C9.3877 6.27329 9.51307 5.9668 9.76383 5.71592C10.0147 5.46504 10.3212 5.3396 10.6833 5.3396H16.1145C16.4766 5.3396 16.7831 5.46504 17.0339 5.71592C17.2847 5.9668 17.4101 6.27329 17.4101 6.63539V17.663C17.4101 18.0251 17.2847 18.3315 17.0339 18.5824C16.7831 18.8333 16.4766 18.9587 16.1145 18.9587H10.6833ZM16.3351 16.9875H10.4627V17.663C10.4627 17.7181 10.4857 17.7687 10.5317 17.8146C10.5777 17.8605 10.6282 17.8835 10.6833 17.8835H16.1145C16.1695 17.8835 16.2201 17.8605 16.2661 17.8146C16.3121 17.7687 16.3351 17.7181 16.3351 17.663V16.9875ZM10.4627 7.31079H16.3351V6.63539C16.3351 6.5802 16.3121 6.52966 16.2661 6.48379C16.2201 6.43779 16.1695 6.41479 16.1145 6.41479H10.6833C10.6282 6.41479 10.5777 6.43779 10.5317 6.48379C10.4857 6.52966 10.4627 6.5802 10.4627 6.63539V7.31079ZM10.4627 15.9124H16.3351V8.38599H10.4627V15.9124Z" fill="#FF5E00"/>
</g>
</svg>
