<svg width="26" height="27" viewBox="0 0 26 27" fill="none" xmlns="http://www.w3.org/2000/svg">
<circle cx="13" cy="13.95" r="13" fill="#FFF6F0"/>
<mask id="mask0_89_2532" style="mask-type:alpha" maskUnits="userSpaceOnUse" x="4" y="5" width="17" height="18">
<rect x="4" y="5.94995" width="17" height="16.8511" fill="#D9D9D9"/>
</mask>
<g mask="url(#mask0_89_2532)">
<path d="M17.7695 20.3434C16.4347 20.3434 15.0936 20.0358 13.7464 19.4205C12.3992 18.8052 11.1615 17.9372 10.0331 16.8166C8.90485 15.6959 8.03036 14.4689 7.40962 13.1357C6.78888 11.8026 6.47852 10.4745 6.47852 9.15131C6.47852 8.93868 6.54935 8.76151 6.69102 8.6198C6.83268 8.47808 7.00977 8.40723 7.22227 8.40723H9.5325C9.71135 8.40723 9.86913 8.46509 10.0058 8.58083C10.1425 8.69645 10.2295 8.83933 10.2667 9.00948L10.6727 11.0753C10.7008 11.267 10.6949 11.4317 10.655 11.5694C10.615 11.7072 10.5432 11.8229 10.4397 11.9165L8.8038 13.495C9.06706 13.973 9.36787 14.4251 9.70621 14.8514C10.0444 15.2776 10.4107 15.6846 10.8048 16.0726C11.1935 16.4579 11.6067 16.8158 12.0444 17.1461C12.4822 17.4765 12.9549 17.7839 13.4625 18.0684L15.052 16.4791C15.1629 16.3648 15.2971 16.2846 15.4547 16.2386C15.6122 16.1927 15.7759 16.1815 15.9457 16.2049L17.9126 16.602C18.0915 16.6488 18.2374 16.7392 18.3505 16.8733C18.4636 17.0074 18.5202 17.1596 18.5202 17.3297V19.6062C18.5202 19.8168 18.4487 19.9924 18.3057 20.1328C18.1628 20.2732 17.984 20.3434 17.7695 20.3434ZM8.30106 12.4985L9.56526 11.2995C9.58792 11.2815 9.60268 11.2567 9.60953 11.2252C9.61637 11.1937 9.61525 11.1645 9.60616 11.1375L9.29821 9.56837C9.28912 9.53245 9.27325 9.50547 9.25058 9.48745C9.22791 9.46943 9.1984 9.46042 9.16204 9.46042H7.64727C7.61999 9.46042 7.59727 9.46943 7.57909 9.48745C7.56103 9.50547 7.55199 9.528 7.55199 9.55503C7.58824 10.0348 7.66745 10.5222 7.78964 11.0172C7.91171 11.5123 8.08218 12.0061 8.30106 12.4985ZM14.4636 18.5665C14.9331 18.7835 15.4228 18.9494 15.9326 19.0642C16.4426 19.1788 16.9192 19.247 17.3622 19.2686C17.3895 19.2686 17.4122 19.2596 17.4304 19.2416C17.4486 19.2236 17.4577 19.2011 17.4577 19.174V17.6969C17.4577 17.6609 17.4486 17.6316 17.4304 17.6092C17.4122 17.5867 17.385 17.571 17.3488 17.5619L15.8613 17.2621C15.834 17.2531 15.8102 17.252 15.7897 17.2588C15.7693 17.2656 15.7477 17.2802 15.7249 17.3027L14.4636 18.5665Z" fill="#FF5E00"/>
</g>
</svg>
